<svg width="23" height="23" viewBox="0 0 23 23" fill="none" xmlns="http://www.w3.org/2000/svg">
<path fill-rule="evenodd" clip-rule="evenodd" d="M11.5 0C5.14873 0 0 5.1477 0 11.4977C0 17.8476 5.14872 22.9954 11.5 22.9954C11.5551 22.9954 11.618 22.9964 11.6872 22.9973C12.0721 23.0031 12.6486 23.0116 13.1236 22.8787C13.4317 22.7925 13.7802 22.6295 14.0482 22.3081C14.3238 21.9774 14.4419 21.5664 14.4419 21.1237C14.4419 20.2242 13.9804 19.5415 13.6644 19.074L13.6294 19.0221C13.3686 18.6355 13.2081 18.3838 13.1383 18.1191C13.0821 17.9055 13.0737 17.6314 13.2874 17.2042C13.5444 16.6903 13.8414 16.4836 14.2397 16.368C14.7204 16.2286 15.3437 16.2216 16.2942 16.2216H16.3065C17.2153 16.2216 18.3323 16.2216 19.6368 16.0353C20.9258 15.8511 21.8439 15.3317 22.3898 14.4298C22.8987 13.5887 23 12.5403 23 11.4977C23 5.14769 17.8512 0 11.5 0ZM6.43475 15.7404C7.00585 15.5891 7.34614 15.0035 7.19479 14.4326C7.04343 13.8615 6.45777 13.5213 5.88667 13.6726L5.87739 13.6751C5.30628 13.8264 4.96601 14.4119 5.11735 14.983C5.2687 15.5539 5.85437 15.8941 6.42546 15.7429L6.43475 15.7404ZM6.4186 7.75427C6.4186 6.4252 7.49625 5.34777 8.82558 5.34777C10.1549 5.34777 11.2326 6.4252 11.2326 7.75427C11.2326 9.08334 10.1549 10.1608 8.82558 10.1608C7.49625 10.1608 6.4186 9.08334 6.4186 7.75427ZM16.314 6.41732C14.9847 6.41732 13.907 7.49475 13.907 8.82382C13.907 10.1528 14.9847 11.2303 16.314 11.2303C17.6432 11.2303 18.7209 10.1528 18.7209 8.82382C18.7209 7.49475 17.6432 6.41732 16.314 6.41732Z" fill="#141B34"/>
</svg>
