<svg width="26" height="23" viewBox="0 0 26 23" fill="none" xmlns="http://www.w3.org/2000/svg">
<path d="M15.9264 5.01411V2.65453C15.9264 2.16585 15.5302 1.76969 15.0415 1.76969H10.3225C9.83378 1.76969 9.43764 2.16585 9.43764 2.65453V5.01411C9.43764 5.5028 9.04148 5.89895 8.5528 5.89895C8.06411 5.89895 7.66797 5.5028 7.66797 5.01411V2.65453C7.66797 1.18847 8.85642 0 10.3225 0H15.0415C16.5077 0 17.696 1.18847 17.696 2.65453V5.01411C17.696 5.5028 17.2999 5.89895 16.8112 5.89895C16.3225 5.89895 15.9264 5.5028 15.9264 5.01411Z" fill="black"/>
<path d="M25.3687 19.7561L25.3514 20.0878C25.1853 21.7236 23.8039 23.0001 22.1243 23.0005H3.24439C1.45227 23.0005 -0.000412835 21.547 8.80075e-08 19.7549L0.00114448 12.4503C1.08202 13.6745 2.6627 14.447 4.42417 14.447H9.43823V15.9274C9.43823 17.0677 10.3625 17.992 11.5028 17.992H13.8624C15.0026 17.992 15.927 17.0677 15.927 15.9274V14.447H20.94C22.7044 14.447 24.2866 13.6712 25.3676 12.4434L25.3687 19.7561ZM14.1573 14.447V15.9274C14.1573 16.0903 14.0253 16.2223 13.8624 16.2223H11.5028C11.34 16.2223 11.2079 16.0903 11.2079 15.9274V14.447H14.1573Z" fill="black"/>
<path d="M20.94 12.9773C23.3834 12.9773 25.3641 10.9967 25.3641 8.55312V7.37333C25.3641 5.69338 24.0876 4.31221 22.4515 4.14619L22.1198 4.12891H3.24439C1.45269 4.12891 0.000176967 5.58162 0 7.37333V8.55312C0 10.9965 1.98077 12.9773 4.42417 12.9773H20.94Z" fill="black"/>
</svg>
