<svg width="23" height="23" viewBox="0 0 23 23" fill="none" xmlns="http://www.w3.org/2000/svg">
<path fill-rule="evenodd" clip-rule="evenodd" d="M6.95328 6.15137V8.2909C6.95328 10.8019 8.98883 12.8374 11.4998 12.8374C14.0108 12.8374 16.0463 10.8019 16.0463 8.2909V6.15137H17.651V8.2909C17.651 11.6881 14.8969 14.4421 11.4998 14.4421C8.1026 14.4421 5.34863 11.6881 5.34863 8.2909V6.15137H6.95328Z" fill="#141B34"/>
<path d="M4.01172 5.34884V6.95349H18.9885V5.34884H17.6513V5.03446C17.6513 3.20205 16.4021 1.62707 14.587 0.793127L14.0366 0.540234C12.4689 -0.180083 10.5313 -0.180073 8.96355 0.540234L8.41316 0.793127C6.5981 1.62707 5.34893 3.20205 5.34893 5.03446V5.34884H4.01172Z" fill="#141B34"/>
<path d="M9.09302 15.3492L11.5 16.9539L13.907 15.3492V12.5693H15.5116V15.1735L22.418 17.1468C22.7625 17.2452 23 17.5599 23 17.9182V22.1972C23 22.6403 22.6408 22.9996 22.1977 22.9996H0.802326C0.359217 22.9996 0 22.6403 0 22.1972V17.9182C0 17.5599 0.237467 17.2452 0.581911 17.1468L7.48837 15.1735V12.5693H9.09302V15.3492Z" fill="#141B34"/>
</svg>
