<svg xmlns="http://www.w3.org/2000/svg" viewBox="0 0 23 23" id="Crystal-Ball-Fill--Streamline-Mingcute-Fill" height="23" width="23">
  <desc>
    Crystal Ball Fill Streamline Icon: https://streamlinehq.com
  </desc>
  <g fill="none" fill-rule="evenodd">
    <path d="m23 0 0 23 -23 0L0 0l23 0ZM12.068770833333334 22.288725l-0.011116666666666667 0.0016291666666666666 -0.06804166666666667 0.034020833333333333 -0.018208333333333333 0.0035458333333333336 -0.014566666666666667 -0.0035458333333333336 -0.06804166666666667 -0.034020833333333333c-0.009487500000000001 -0.002970833333333333 -0.017920833333333334 -0.0004791666666666667 -0.022616666666666667 0.005175000000000001l-0.003929166666666667 0.010445833333333333 -0.016387500000000003 0.40949583333333334 0.004791666666666667 0.01955 0.010541666666666666 0.011691666666666668 0.09928333333333333 0.07091666666666667 0.014183333333333334 0.0037375 0.011308333333333333 -0.0037375 0.09928333333333333 -0.07091666666666667 0.012075 -0.015333333333333334 0.003258333333333333 -0.015908333333333333 -0.016387500000000003 -0.40949583333333334c-0.0019166666666666668 -0.009679166666666668 -0.008241666666666666 -0.0158125 -0.015429166666666667 -0.017249999999999998Zm0.25386250000000005 -0.1078125 -0.013320833333333334 0.0019166666666666668 -0.17700416666666668 0.08855 -0.009487500000000001 0.009775 -0.0025875000000000004 0.010733333333333334 0.017154166666666668 0.41160416666666666 0.0046 0.012266666666666667 0.008145833333333335 0.0068041666666666676 0.19252916666666667 0.08883750000000001c0.011595833333333333 0.0035458333333333336 0.021945833333333335 -0.00019166666666666667 0.027312500000000003 -0.007666666666666667l0.0038333333333333336 -0.013416666666666667 -0.03267916666666667 -0.5890875000000001c-0.0023 -0.011404166666666668 -0.009870833333333334 -0.0186875 -0.018495833333333336 -0.020316666666666667Zm-0.6855916666666667 0.0019166666666666668c-0.009391666666666666 -0.004695833333333333 -0.019933333333333334 -0.0019166666666666668 -0.026258333333333335 0.005079166666666667l-0.0054625 0.013320833333333334 -0.03267916666666667 0.5890875000000001c-0.0006708333333333334 0.011020833333333334 0.0067083333333333335 0.0198375 0.0161 0.022425l0.015045833333333333 -0.0013416666666666668 0.19252916666666667 -0.08883750000000001 0.009008333333333333 -0.0077625 0.0037375 -0.011308333333333333 0.017154166666666668 -0.41160416666666666 -0.0030666666666666668 -0.012075 -0.009008333333333333 -0.008433333333333334 -0.1771 -0.08855Z" stroke-width="0.9583"></path>
    <path fill="#141b34" d="M11.5 1.9166666666666667c4.4988 0 8.145833333333334 3.6470141666666667 8.145833333333334 8.145833333333334 0 2.5642018625 -1.18485075 4.85176375 -3.036910895833333 6.344958825L16.39229166666667 16.576195833333333l0.680225 2.7209958333333337c0.21652669583333334 0.8660153583333334 -0.39883677083333335 1.7061841791666668 -1.2686404208333333 1.78077385L15.677950000000001 21.083333333333336l-8.355909583333334 0c-0.8926901162499999 0 -1.5585074466666666 -0.8008045125000001 -1.4199187329166667 -1.662680925L5.927454583333334 19.297191666666667l0.6802633333333333 -2.7209958333333337C4.631902916666666 15.089820833333334 3.354166666666667 12.725325000000002 3.354166666666667 10.0625 3.354166666666667 5.563680833333334 7.001180833333334 1.9166666666666667 11.5 1.9166666666666667Zm3.0850666666666666 15.333333333333334 -6.1701525 0 -0.4791666666666667 1.9166666666666667 7.128485833333333 0 -0.4791666666666667 -1.9166666666666667Zm0.8537791666666668 -8.08786375c-0.04072916666666667 -0.09153041666666667 -0.17058333333333334 -0.09153041666666667 -0.21131250000000001 0 -0.0221375 0.0498525 -0.045425 0.09914916666666666 -0.06986250000000001 0.14790916666666667 -0.11682083333333333 0.22956875000000002 -0.26651250000000004 0.43907958333333336 -0.44006666666666666 0.6263379166666667 -0.0951305875 0.10132774583333334 -0.19809813750000002 0.19532960833333335 -0.3080225166666667 0.28112526250000003L14.2395875 10.339937500000001l-0.16885833333333333 0.10321250000000001c-0.06141 0.03457666666666667 -0.07369200000000001 0.11220933333333334 -0.036846000000000004 0.1640084l0.036846000000000004 0.032929099999999996 0.16885833333333333 0.10330833333333335c0.17499166666666668 0.11595833333333333 0.33532083333333335 0.2515625 0.4780166666666667 0.4034583333333333 0.17412916666666667 0.18677916666666666 0.32324583333333334 0.3968458333333334 0.44006666666666666 0.6263666666666666 0.0244375 0.04877916666666667 0.047725 0.0980375 0.06986250000000001 0.14787083333333334 0.03394100416666667 0.07634725416666667 0.1297743375 0.08907171666666666 0.1843460541666667 0.03817357916666667L15.438845833333334 11.921091666666666l0.06976666666666667 -0.14787083333333334c0.11691666666666667 -0.22952083333333334 0.26603333333333334 -0.4395875 0.4401625 -0.6263666666666666 0.14269583333333336 -0.15189583333333334 0.3029291666666667 -0.2875 0.4780166666666667 -0.4034583333333333 0.054816666666666666 -0.03641666666666667 0.11116666666666668 -0.07082083333333333 0.16885833333333333 -0.10330833333333335 0.07676250000000001 -0.04322083333333333 0.07676250000000001 -0.15371666666666667 0 -0.1969375 -0.05769166666666667 -0.032391666666666666 -0.11404166666666667 -0.06689166666666667 -0.16885833333333333 -0.10321250000000001 -0.1750875 -0.11605416666666667 -0.33532083333333335 -0.2515625 -0.4780166666666667 -0.40355416666666666 -0.13081250000000003 -0.1411625 -0.24744760833333335 -0.2941681791666667 -0.34675192916666664 -0.45839449458333337L15.5086125 9.310045416666666l-0.06976666666666667 -0.14790916666666667Zm-2.8045625 -3.7946645833333332c-0.06785000000000001 -0.15255708333333334 -0.2843375 -0.15255708333333334 -0.3521875 0 -0.036895833333333336 0.08306833333333333 -0.07513333333333333 0.16555208333333332 -0.11634166666666666 0.2465216666666667 -0.19473333333333334 0.38259541666666663 -0.4434208333333334 0.7325883333333334 -0.7335083333333333 1.043902916666667 -0.23785833333333334 0.25323 -0.5050416666666667 0.4791379166666667 -0.7967583333333333 0.6725391666666667 -0.091425 0.06061458333333334 -0.18534166666666665 0.11803791666666667 -0.2814625 0.17210708333333333 -0.1279375 0.07198041666666667 -0.1279375 0.25621041666666666 0 0.3281908333333333 0.09612083333333334 0.05406916666666667 0.1900375 0.11149250000000001 0.2814625 0.17210708333333333 0.2917166666666667 0.19340125 0.5589000000000001 0.4193091666666667 0.7967583333333333 0.6725391666666667 0.29008750000000005 0.31130500000000005 0.538775 0.6613170833333333 0.7335083333333333 1.04394125 0.04120833333333333 0.08097916666666667 0.07944583333333334 0.16339583333333335 0.11634166666666666 0.24648333333333333 0.06785000000000001 0.15256666666666668 0.2843375 0.15256666666666668 0.3521875 0 0.036895833333333336 -0.08308750000000001 0.07513333333333333 -0.16550416666666667 0.11634166666666666 -0.24648333333333333 0.19473333333333334 -0.3826241666666667 0.4434208333333334 -0.7326266666666668 0.7335083333333333 -1.04394125 0.23785833333333334 -0.25323 0.5049458333333334 -0.4791379166666667 0.7967583333333333 -0.6725391666666667 0.091425 -0.06061458333333334 0.18524583333333333 -0.11803791666666667 0.2813666666666667 -0.17210708333333333 0.12803333333333333 -0.07198041666666667 0.12803333333333333 -0.25621041666666666 0 -0.3281908333333333 -0.09612083333333334 -0.05406916666666667 -0.18994166666666668 -0.11149250000000001 -0.2813666666666667 -0.17210708333333333 -0.29181250000000003 -0.19340125 -0.5589000000000001 -0.4193091666666667 -0.7967583333333333 -0.6725391666666667 -0.29008750000000005 -0.3113145833333334 -0.538775 -0.6613075 -0.7335083333333333 -1.0439125 -0.04120833333333333 -0.08094083333333334 -0.07944583333333334 -0.16344375000000003 -0.11634166666666666 -0.24651208333333335Z" stroke-width="0.9583"></path>
  </g>
</svg>