<svg width="21" height="23" viewBox="0 0 21 23" fill="none" xmlns="http://www.w3.org/2000/svg">
<path fill-rule="evenodd" clip-rule="evenodd" d="M8.52828 0.443402C8.36254 0.114257 7.99256 -0.0606392 7.63086 0.0191546L4.47233 0.715936C3.21207 0.993957 1.95626 1.76589 1.43812 3.12646C0.681509 5.11319 0.0890755 8.20305 0.00424673 12.5533L0.00351446 12.5904C-0.000814743 12.8074 -0.00554249 13.0447 0.0185804 13.2462C0.0472264 13.4854 0.126886 13.7859 0.379143 14.0412C0.632822 14.298 0.936243 14.3819 1.17588 14.4145C1.37919 14.4421 1.61989 14.442 1.84156 14.4419H1.8791H3.1324C2.97115 15.4303 2.75504 16.6565 2.56682 17.702L2.54591 17.8177C2.37293 18.7728 2.2294 19.5652 2.72783 20.475C2.95688 20.8931 3.21616 21.1978 3.56346 21.4396C3.86336 21.6485 4.20872 21.7923 4.53696 21.9291L4.5807 21.9474C5.89758 22.4965 7.83439 23 10.5 23C13.1656 23 15.1024 22.4965 16.4193 21.9474L16.4629 21.9292C16.7911 21.7925 17.1366 21.6486 17.4365 21.4396C17.7838 21.1978 18.0431 20.8931 18.2721 20.475C18.7706 19.5652 18.6271 18.7728 18.4541 17.8177L18.4332 17.702C18.245 16.6565 18.0288 15.4303 17.8676 14.4419H19.1208H19.1584C19.38 14.442 19.6207 14.4421 19.8241 14.4145C20.0638 14.3819 20.3672 14.298 20.6209 14.0412C20.8731 13.7859 20.9528 13.4854 20.9814 13.2462C21.0055 13.0447 21.0008 12.8075 20.9965 12.5905L20.9957 12.5533C20.9109 8.20305 20.3185 5.11319 19.5618 3.12646C19.0437 1.76588 17.7879 0.993957 16.5276 0.715936L16.0631 0.613463L13.3691 0.0191546C13.0074 -0.0606392 12.6375 0.114257 12.4717 0.443402C12.0888 1.20366 11.3167 1.60472 10.5 1.60472C9.68327 1.60472 8.91123 1.20366 8.52828 0.443402ZM5.15476 13.078C5.08497 13.1495 4.97018 13.0889 4.98399 12.9903C5.62969 8.37665 5.869 4.65567 5.91219 2.20687C5.9139 2.10942 5.98247 2.02655 6.07825 2.00542L7.3303 1.72921C7.38568 1.71699 7.443 1.73859 7.4779 1.78303C7.49668 1.80696 7.50764 1.83533 7.50889 1.86566C7.58447 3.70102 7.55294 6.5552 7.01309 9.01273C6.62867 10.7626 6.02466 12.187 5.15476 13.078ZM13.4917 1.85466C13.4923 1.83179 13.4927 1.82004 13.509 1.79928C13.544 1.7547 13.6144 1.71702 13.67 1.72927L14.9217 2.00542C15.0176 2.02655 15.0861 2.10942 15.0878 2.20687C15.131 4.65569 15.3704 8.37671 16.016 12.9904C16.0299 13.089 15.9151 13.1496 15.8453 13.0781C14.9752 12.1871 14.3712 10.7627 13.9868 9.01276C13.4471 6.55496 13.4158 3.70018 13.4914 1.8648C13.4915 1.86117 13.4916 1.85781 13.4917 1.85466Z" fill="#141B34"/>
</svg>
