<svg xmlns="http://www.w3.org/2000/svg" viewBox="0 0 23 23" id="Video-Camera-Fill--Streamline-Mingcute-Fill" height="23" width="23">
  <desc>
    Video Camera Fill Streamline Icon: https://streamlinehq.com
  </desc>
  <g fill="none" fill-rule="evenodd">
    <path d="m23 0 0 23 -23 0L0 0l23 0ZM12.068770833333334 22.288725l-0.011116666666666667 0.0016291666666666666 -0.06804166666666667 0.034020833333333333 -0.018208333333333333 0.0035458333333333336 -0.014566666666666667 -0.0035458333333333336 -0.06804166666666667 -0.034020833333333333c-0.009487500000000001 -0.002970833333333333 -0.017920833333333334 -0.0004791666666666667 -0.022616666666666667 0.005175000000000001l-0.003929166666666667 0.010445833333333333 -0.016387500000000003 0.40949583333333334 0.004791666666666667 0.01955 0.010541666666666666 0.011691666666666668 0.09928333333333333 0.07091666666666667 0.014183333333333334 0.0037375 0.011308333333333333 -0.0037375 0.09928333333333333 -0.07091666666666667 0.012075 -0.015333333333333334 0.003258333333333333 -0.015908333333333333 -0.016387500000000003 -0.40949583333333334c-0.0019166666666666668 -0.009679166666666668 -0.008241666666666666 -0.0158125 -0.015429166666666667 -0.017249999999999998Zm0.25386250000000005 -0.1078125 -0.013320833333333334 0.0019166666666666668 -0.17700416666666668 0.08855 -0.009487500000000001 0.009775 -0.0025875000000000004 0.010733333333333334 0.017154166666666668 0.41160416666666666 0.0046 0.012266666666666667 0.008145833333333335 0.0068041666666666676 0.19252916666666667 0.08883750000000001c0.011595833333333333 0.0035458333333333336 0.021945833333333335 -0.00019166666666666667 0.027312500000000003 -0.007666666666666667l0.0038333333333333336 -0.013416666666666667 -0.03267916666666667 -0.5890875000000001c-0.0023 -0.011404166666666668 -0.009870833333333334 -0.0186875 -0.018495833333333336 -0.020316666666666667Zm-0.6855916666666667 0.0019166666666666668c-0.009391666666666666 -0.004695833333333333 -0.019933333333333334 -0.0019166666666666668 -0.026258333333333335 0.005079166666666667l-0.0054625 0.013320833333333334 -0.03267916666666667 0.5890875000000001c-0.0006708333333333334 0.011020833333333334 0.0067083333333333335 0.0198375 0.0161 0.022425l0.015045833333333333 -0.0013416666666666668 0.19252916666666667 -0.08883750000000001 0.009008333333333333 -0.0077625 0.0037375 -0.011308333333333333 0.017154166666666668 -0.41160416666666666 -0.0030666666666666668 -0.012075 -0.009008333333333333 -0.008433333333333334 -0.1771 -0.08855Z" stroke-width="0.9583"></path>
    <path fill="#141b34" d="M15.333333333333334 6.708333333333334c0 0.7112654166666668 -0.19367916666666668 1.3772783333333334 -0.5313 1.9481766666666667C16.1874 8.862800833333333 17.25 10.057325 17.25 11.5l0 0.20048333333333335 1.6419125 -1.011425c0.9576625 -0.5899500000000001 2.1914208333333334 0.09899583333333334 2.1914208333333334 1.2238875l0 4.923629166666666c0 1.1248916666666666 -1.2337583333333335 1.8139333333333334 -2.1914208333333334 1.2238875L17.25 17.0490375 17.25 17.25c0 1.5878625000000002 -1.2871375 2.875 -2.875 2.875L4.791666666666667 20.125c-1.5878145833333333 0 -2.875 -1.2871375 -2.875 -2.875l0 -5.75c0 -1.0817666666666668 0.5974345833333333 -2.0239616666666667 1.4803470833333334 -2.5146762500000004C3.0664750000000005 8.465705833333335 2.875 7.848960833333334 2.875 7.1875 2.875 5.335041666666667 4.376708333333334 3.8333333333333335 6.229166666666667 3.8333333333333335c0.7911808333333333 0 1.51837375 0.27393 2.091917083333333 0.73211875C9.00993375 3.545574583333334 10.1766375 2.875 11.5 2.875c2.1170541666666667 0 3.8333333333333335 1.7162408333333332 3.8333333333333335 3.8333333333333335Zm-3.8333333333333335 -1.9166666666666667c-1.058575 0 -1.9166666666666667 0.8581204166666666 -1.9166666666666667 1.9166666666666667s0.8580916666666667 1.9166666666666667 1.9166666666666667 1.9166666666666667 1.9166666666666667 -0.8581204166666666 1.9166666666666667 -1.9166666666666667 -0.8580916666666667 -1.9166666666666667 -1.9166666666666667 -1.9166666666666667ZM6.229166666666667 8.625C7.023078750000001 8.625 7.666666666666667 7.981412083333335 7.666666666666667 7.1875S7.023078750000001 5.75 6.229166666666667 5.75 4.791666666666667 6.393587916666667 4.791666666666667 7.1875 5.435254583333333 8.625 6.229166666666667 8.625Z" stroke-width="0.9583"></path>
  </g>
</svg>