<svg width="21" height="23" viewBox="0 0 21 23" fill="none" xmlns="http://www.w3.org/2000/svg">
<path fill-rule="evenodd" clip-rule="evenodd" d="M9.42078 1.74981e-07C11.3868 -1.05227e-05 12.9439 -3.19771e-05 14.1626 0.163824C15.4168 0.33244 16.432 0.687731 17.2326 1.4883C18.0331 2.28888 18.3884 3.30403 18.5571 4.55825C18.7209 5.77692 18.7209 7.33415 18.7209 9.3001V11.3605C17.6981 10.7688 16.5106 10.4302 15.2442 10.4302C11.4038 10.4302 8.29068 13.5433 8.29068 17.3837C8.29068 19.6875 9.41115 21.7297 11.1369 22.995C10.6032 23 10.032 23 9.42164 23C7.45568 23 5.77694 23 4.55825 22.8362C3.30403 22.6675 2.28888 22.3122 1.4883 21.5117C0.687731 20.7111 0.33244 19.6959 0.163824 18.4417C-3.18496e-05 17.223 -1.05227e-05 15.6659 1.74956e-07 13.6998V9.30008C-1.05227e-05 7.33412 -3.18496e-05 5.77694 0.163824 4.55825C0.33244 3.30403 0.687731 2.28888 1.4883 1.4883C2.28888 0.687731 3.30403 0.33244 4.55825 0.163824C5.77694 -3.19771e-05 7.45484 -1.05227e-05 9.42078 1.74981e-07ZM5.08138 5.34883C4.63828 5.34883 4.27906 5.70804 4.27906 6.15115C4.27906 6.59426 4.63828 6.95347 5.08138 6.95347H13.6395C14.0826 6.95347 14.4418 6.59426 14.4418 6.15115C14.4418 5.70804 14.0826 5.34883 13.6395 5.34883H5.08138ZM5.08138 9.62789C4.63828 9.62789 4.27906 9.98711 4.27906 10.4302C4.27906 10.8733 4.63828 11.2325 5.08138 11.2325H9.89533C10.3384 11.2325 10.6977 10.8733 10.6977 10.4302C10.6977 9.98711 10.3384 9.62789 9.89533 9.62789H5.08138Z" fill="#141B34"/>
<path fill-rule="evenodd" clip-rule="evenodd" d="M15.2442 11.7676C12.1424 11.7676 9.62793 14.2821 9.62793 17.3838C9.62793 20.4856 12.1424 23.0001 15.2442 23.0001C18.346 23.0001 20.8605 20.4856 20.8605 17.3838C20.8605 14.2821 18.346 11.7676 15.2442 11.7676ZM16.0465 15.2443C16.0465 14.8012 15.6873 14.442 15.2442 14.442C14.8011 14.442 14.4419 14.8012 14.4419 15.2443V17.8652C14.4419 18.2018 14.652 18.5026 14.968 18.6186L16.5726 19.2069C16.9887 19.3595 17.4496 19.1459 17.6022 18.7298C17.7547 18.3138 17.5411 17.8528 17.1251 17.7003L16.0465 17.3049V15.2443Z" fill="#141B34"/>
</svg>
