<svg width="23" height="23" viewBox="0 0 23 23" fill="none" xmlns="http://www.w3.org/2000/svg">
<path fill-rule="evenodd" clip-rule="evenodd" d="M11.5642 1.66957e-07C14.022 -1.10526e-05 15.9526 -2.22354e-05 17.4598 0.202613C19.0043 0.410275 20.2298 0.844515 21.1926 1.80736C22.1555 2.77022 22.5897 3.99568 22.7974 5.54022C23 7.04747 23 8.97797 23 11.4358V11.5642C23 14.022 23 15.9526 22.7974 17.4598C22.5897 19.0043 22.1555 20.2298 21.1926 21.1926C20.2298 22.1555 19.0043 22.5897 17.4598 22.7974C15.9526 23 14.022 23 11.5642 23H11.4358C8.97797 23 7.04747 23 5.54022 22.7974C3.99568 22.5897 2.77022 22.1555 1.80736 21.1926C0.844515 20.2298 0.410275 19.0043 0.202613 17.4598C-2.22354e-05 15.9526 -1.10526e-05 14.022 1.66957e-07 11.5642V11.4358C-1.10526e-05 8.97799 -2.22354e-05 7.04747 0.202613 5.54022C0.410275 3.99568 0.844515 2.77022 1.80736 1.80736C2.77022 0.844515 3.99568 0.410275 5.54022 0.202613C7.04747 -2.22354e-05 8.97799 -1.10526e-05 11.4358 1.66957e-07H11.5642ZM18.7928 5.32927C19.4124 5.32927 19.9147 5.83159 19.9147 6.45122C19.9147 7.07086 19.4124 7.57317 18.7928 7.57317H14.7347C13.9284 7.57317 13.4178 7.57486 13.0322 7.61888C12.6755 7.65962 12.5429 7.72626 12.4614 7.78495C12.3799 7.84364 12.2748 7.9484 12.1234 8.27401C11.9597 8.62577 11.7966 9.10963 11.5416 9.87463L9.19864 16.9035C9.04976 17.3502 8.63784 17.6564 8.16722 17.6703C7.69661 17.6841 7.26742 17.4026 7.09256 16.9655L5.3622 12.6396L4.82979 12.9946C4.31422 13.3382 3.61763 13.1989 3.27392 12.6833C2.9302 12.1678 3.06952 11.4712 3.58509 11.1275L4.11751 10.7725L4.16032 10.7439C4.3874 10.5923 4.64716 10.419 4.88649 10.3047C5.16849 10.17 5.61102 10.0223 6.12546 10.1822C6.6399 10.3419 6.92087 10.7143 7.07696 10.985C7.20943 11.2148 7.32525 11.5048 7.42651 11.7584L7.4456 11.8062L8.03846 13.2883L9.43146 9.10927C9.66236 8.4165 9.86476 7.80926 10.0888 7.32753C10.331 6.80674 10.6432 6.32948 11.1494 5.96461C11.6556 5.59974 12.2071 5.45461 12.7778 5.38946C13.3057 5.32919 13.9457 5.32922 14.6759 5.32927H18.7928ZM14.5372 10.7067C14.0991 10.2685 13.3887 10.2685 12.9506 10.7067C12.5124 11.1448 12.5124 11.8552 12.9506 12.2933L13.8402 13.1829L12.9506 14.0725C12.5124 14.5106 12.5124 15.2211 12.9506 15.6592C13.3887 16.0973 14.0991 16.0973 14.5372 15.6592L15.4268 14.7696L16.3164 15.6592C16.7545 16.0973 17.465 16.0973 17.9031 15.6592C18.3412 15.2211 18.3412 14.5106 17.9031 14.0725L17.0135 13.1829L17.9031 12.2933C18.3412 11.8552 18.3412 11.1448 17.9031 10.7067C17.465 10.2685 16.7545 10.2685 16.3164 10.7067L15.4268 11.5963L14.5372 10.7067Z" fill="#141B34"/>
</svg>
