<svg width="18" height="23" viewBox="0 0 18 23" fill="none" xmlns="http://www.w3.org/2000/svg">
<path fill-rule="evenodd" clip-rule="evenodd" d="M8.11465 0.217466C6.1808 0.908537 5.40462 3.3613 6.55346 5.15123C7.0227 5.88224 8.25847 6.62931 8.99849 6.62931C9.22893 6.62931 9.77563 6.44912 10.2132 6.22867C12.6618 4.9962 12.5605 1.43094 10.0445 0.276232C9.27554 -0.0766895 8.9641 -0.086105 8.11465 0.217466ZM7.3915 7.37298C4.13221 7.95983 2.90383 9.15253 2.88021 11.7537C2.85401 14.6266 2.5249 15.4373 1.18869 15.9194C0.755446 16.0756 0.310793 16.3278 0.200232 16.48C-0.0989891 16.8916 -0.0429054 17.5793 0.316738 17.9082C0.987334 18.5212 2.98771 17.872 4.26398 16.6272C4.7959 16.1084 4.96784 15.8045 5.05205 15.2332C5.11135 14.8314 5.24601 14.1009 5.35159 13.6098L5.54347 12.717L5.59152 13.9317C5.64744 15.3499 5.24633 17.4002 4.83093 17.8199C4.62764 18.0252 4.18797 18.1304 3.26508 18.1944C1.13903 18.3415 0.00128722 19.1993 1.62748e-06 20.6561C-0.000480469 21.1845 0.105902 21.3925 0.640547 21.9061C1.37783 22.6147 2.00729 22.8324 3.69543 22.9629C4.92735 23.058 7.67883 22.7287 8.59706 22.3759C9.06631 22.1957 9.05441 22.1856 7.14612 21.1464C4.77597 19.8556 5.41218 19.9488 8.48747 21.3429C11.8424 22.8639 13.5361 23.2397 15.3495 22.8657C17.1077 22.503 17.9983 21.7291 17.997 20.5653C17.9955 19.2705 16.8303 18.365 14.9778 18.2194C13.3905 18.0944 13.2041 18.0321 12.9628 17.5442C12.5946 16.8003 12.3492 15.2183 12.4027 13.9345L12.4535 12.717L12.6454 13.6098C12.751 14.1009 12.8856 14.8314 12.9449 15.2332C13.0291 15.8045 13.2011 16.1084 13.733 16.6272C15.0093 17.872 17.0096 18.5212 17.6802 17.9082C18.3336 17.3108 17.9268 16.1572 16.9931 15.9606C15.5955 15.6663 15.3005 15.0796 15.1356 12.2658C15.0279 10.4306 14.9524 10.0089 14.6405 9.49896C14.1524 8.70123 13.0966 7.98857 11.9446 7.67931C11.0092 7.42818 8.15257 7.23597 7.3915 7.37298Z" fill="black"/>
</svg>
