<svg width="23" height="23" viewBox="0 0 23 23" fill="none" xmlns="http://www.w3.org/2000/svg">
<path fill-rule="evenodd" clip-rule="evenodd" d="M17.4598 0.202613C15.9526 -2.22354e-05 14.022 -1.10526e-05 11.5642 1.66957e-07H11.4358C8.97799 -1.10526e-05 7.04747 -2.22354e-05 5.54022 0.202613C3.99568 0.410275 2.77022 0.844515 1.80736 1.80736C0.844515 2.77022 0.410275 3.99568 0.202613 5.54022C-2.22354e-05 7.04747 -1.10526e-05 8.97799 1.66957e-07 11.4358V11.5642C-1.10526e-05 14.022 -2.22354e-05 15.9526 0.202613 17.4598C0.410275 19.0043 0.844515 20.2298 1.80736 21.1926C2.77022 22.1555 3.99568 22.5897 5.54022 22.7974C7.04747 23 8.97797 23 11.4358 23H11.5642C14.022 23 15.9526 23 17.4598 22.7974C19.0043 22.5897 20.2298 22.1555 21.1926 21.1926C22.1555 20.2298 22.5897 19.0043 22.7974 17.4598C23 15.9526 23 14.022 23 11.5642V11.4358C23 8.97797 23 7.04747 22.7974 5.54022C22.5897 3.99568 22.1555 2.77022 21.1926 1.80736C20.2298 0.844515 19.0043 0.410275 17.4598 0.202613ZM17.1098 5.89027C17.1098 5.44351 16.8448 5.03933 16.4349 4.86127C16.0252 4.68322 15.5489 4.76523 15.2223 5.07006C14.6885 5.56828 13.2047 6.4159 11.2633 6.80714L11.2129 6.81728C10.6824 6.92414 10.2074 7.01985 9.83682 7.13216C9.46759 7.24407 8.98814 7.42999 8.64171 7.8532C8.31357 8.25405 8.21388 8.71175 8.17255 9.08896C8.13403 9.44043 8.13409 9.86958 8.13415 10.3254V10.378V12.678C7.9529 12.6412 7.76528 12.622 7.57317 12.622C6.02408 12.622 4.76829 13.8778 4.76829 15.4268C4.76829 16.9759 6.02408 18.2317 7.57317 18.2317C9.12226 18.2317 10.378 16.9759 10.378 15.4268V10.378C10.378 9.85073 10.3796 9.54736 10.4031 9.3334L10.4063 9.30591C10.4291 9.29795 10.4561 9.2892 10.4877 9.27955C10.7426 9.20233 11.1098 9.12707 11.7066 9.00682C12.888 8.76873 13.9719 8.37983 14.8659 7.94169V10.9545C14.7737 10.9443 14.6802 10.939 14.5854 10.939C13.1912 10.939 12.061 12.0693 12.061 13.4634C12.061 14.8577 13.1912 15.9878 14.5854 15.9878C15.9795 15.9878 17.1098 14.8577 17.1098 13.4634V5.89027Z" fill="#141B34"/>
</svg>
