<svg width="21" height="23" viewBox="0 0 21 23" fill="none" xmlns="http://www.w3.org/2000/svg">
<path fill-rule="evenodd" clip-rule="evenodd" d="M14.4226 0.639497C13.396 1.1414 13.1179 1.31281 13.0798 1.46739C13.0218 1.70163 13.1723 1.91013 13.3993 1.91013C13.4901 1.91013 13.9103 1.7438 14.3331 1.54039C14.7558 1.33706 15.1018 1.19865 15.1018 1.23281C15.1018 1.33831 14.5324 2.26212 14.1871 2.7171C13.6537 3.41958 12.0968 4.89754 11.0391 5.70543C7.95749 8.05919 4.22956 9.78039 2.09291 9.83597C1.46627 9.85231 1.14905 9.98914 1.14905 10.2432C1.14905 10.3328 1.2445 10.4695 1.36113 10.5471C1.79424 10.8353 3.85399 10.4324 5.66317 9.70564C9.63936 8.10853 14.1985 4.56663 15.521 2.04729L15.7891 1.53672L16.1365 2.29903C16.4833 3.06001 16.6459 3.22475 16.9376 3.11109C17.2357 2.99501 17.1699 2.7106 16.5286 1.34439C16.18 0.601415 15.8547 -0.00356739 15.806 1.58355e-05C15.7572 0.00359906 15.1347 0.291424 14.4226 0.639497ZM13.132 9.28491C13.132 11.3299 13.1546 11.9096 13.2346 11.9086C13.291 11.9079 13.6326 11.8142 13.9938 11.7003C14.3549 11.5863 14.6775 11.4932 14.7107 11.4932C14.7438 11.4932 14.9225 11.7369 15.1078 12.0348C15.3165 12.3702 15.5004 12.5765 15.5908 12.5765C15.6837 12.5765 15.8501 12.3797 16.0488 12.0348C16.2203 11.7369 16.4099 11.4932 16.47 11.4932C16.5583 11.4932 16.5791 11.0323 16.5791 9.07658V6.65998H14.8556H13.132V9.28491ZM8.82026 8.67909C8.79834 8.73726 8.78997 10.7536 8.80171 13.1598L8.82305 17.5347L9.17261 17.5603C9.58667 17.5907 9.57149 17.6186 9.70855 16.5796L9.81254 15.7912L10.0975 15.7346C10.2543 15.7035 10.5547 15.6533 10.765 15.6232C10.9755 15.5931 11.1664 15.5186 11.1895 15.4576C11.2126 15.3966 11.0667 15.0977 10.8656 14.7932L10.4998 14.2395L11.0566 13.579C11.4909 13.0641 11.6498 12.9285 11.7777 12.9632C12.3067 13.1068 12.2702 13.2652 12.2702 10.8265V8.61826L10.5652 8.59576C9.2459 8.57826 8.8512 8.59718 8.82026 8.67909ZM4.5705 10.4638C4.53948 10.4952 4.51412 12.1084 4.51412 14.0487V17.5763H6.23859H7.96299L7.94165 14.0139L7.92022 10.4515L6.27356 10.429C5.36786 10.4166 4.60153 10.4323 4.5705 10.4638ZM0 14.8264V17.5763H1.72357H3.44714V14.8264V12.0765H1.72357H0V14.8264ZM13.9938 12.229L13.5834 12.3681L13.5789 12.9744C13.5744 13.5765 13.5724 13.582 13.2754 13.7869C13.111 13.9003 12.9366 13.9931 12.8878 13.9931C12.839 13.9931 12.582 13.8819 12.3167 13.7459L11.8345 13.4988L11.4984 13.8691C11.3134 14.0728 11.1622 14.261 11.1622 14.2875C11.1622 14.3139 11.3064 14.5512 11.4827 14.8147L11.8032 15.2939L11.6381 15.681L11.4731 16.068L10.9055 16.1248C10.5932 16.156 10.3174 16.2151 10.2924 16.2561C10.2675 16.2971 10.2263 16.5352 10.2008 16.7852L10.1546 17.2397L10.6935 17.4852C11.2269 17.7281 11.2329 17.7347 11.2907 18.1256L11.3491 18.5207L10.8905 18.9444L10.432 19.3679L10.631 19.8117L10.83 20.2554L11.3038 20.1932C12.0476 20.0955 12.0696 20.1004 12.3301 20.4244L12.5766 20.7308L12.4028 21.2531C12.3073 21.5402 12.2292 21.8015 12.2292 21.8337C12.2292 21.8659 12.4151 22.0133 12.6422 22.1613C13.1047 22.4626 13.0109 22.4877 13.6626 21.8891C13.9425 21.632 14.0103 21.6204 14.4501 21.7542C14.7493 21.8452 14.7666 21.8709 14.9002 22.4244L15.0392 23L15.5753 22.9756L16.1115 22.9512L16.2525 22.4274C16.3299 22.1394 16.4085 21.8884 16.427 21.8696C16.4454 21.8509 16.6328 21.7887 16.8433 21.7315L17.2261 21.6276L17.6404 22.0211C18.0957 22.4535 18.0942 22.4535 18.7245 22.0176L18.9411 21.8679L18.7873 21.3679C18.5821 20.7009 18.5876 20.6517 18.9025 20.3417C19.1686 20.0799 19.1829 20.0762 19.6114 20.1588C20.2963 20.2906 20.3174 20.2829 20.5086 19.8317C20.6045 19.6054 20.6829 19.385 20.6829 19.3418C20.6829 19.2986 20.4853 19.1084 20.2438 18.9193L19.8047 18.5754L19.8711 18.1486C19.9077 17.914 19.9483 17.7137 19.9614 17.7038C19.9745 17.6939 20.2021 17.5961 20.4671 17.4865C20.7321 17.3769 20.9638 17.248 20.9819 17.2C21.0564 17.0033 20.8842 16.203 20.764 16.1866C20.6968 16.1775 20.4269 16.1459 20.1642 16.1165C19.6905 16.0634 19.6851 16.0597 19.5256 15.682L19.3648 15.3011L19.6903 14.7982L20.0158 14.2953L19.6867 13.8961L19.3575 13.497L18.8735 13.745C18.6073 13.8814 18.3416 13.9931 18.2831 13.9931C18.2246 13.9931 18.0388 13.898 17.8703 13.7818L17.564 13.5704V12.96V12.3497L17.0972 12.2149C16.8405 12.1407 16.6233 12.0886 16.6147 12.0991C16.606 12.1096 16.4641 12.3338 16.2992 12.5973L15.9996 13.0765L15.5712 13.0755L15.1428 13.0746L14.8386 12.5756C14.6712 12.3011 14.505 12.0795 14.4692 12.0832C14.4334 12.0868 14.2195 12.1525 13.9938 12.229ZM16.3835 15.8599C17.5577 16.4149 17.8024 18.0116 16.8534 18.926C16.0226 19.7267 14.6125 19.5406 14.0046 18.5501C13.0246 16.9536 14.6969 15.0625 16.3835 15.8599Z" fill="black"/>
</svg>
