<svg width="19" height="23" viewBox="0 0 19 23" fill="none" xmlns="http://www.w3.org/2000/svg">
<path d="M17.6895 0L17.7733 0.00418273C18.1837 0.0454865 18.5038 0.387074 18.5038 0.802326C18.5038 1.21758 18.1837 1.55916 17.7733 1.60047L17.6895 1.60465H3.52857C2.49341 1.60465 1.65219 2.42034 1.62964 3.43496C1.6304 3.44917 1.63281 3.46339 1.63282 3.47779V3.58957C1.69166 4.57058 2.51772 5.34884 3.52857 5.34884H13.9203C14.3828 5.34881 14.8091 5.34877 15.1978 5.35824C15.1967 4.982 15.1925 4.73555 15.1671 4.54965C15.153 4.44635 15.1366 4.39431 15.1268 4.37101C15.1247 4.36567 15.1226 4.36157 15.1215 4.35952L15.1205 4.35742L15.1184 4.35638C15.1163 4.3553 15.1122 4.35335 15.1067 4.35115C15.0831 4.34157 15.0302 4.32535 14.9254 4.31145C14.6967 4.28118 14.3775 4.27907 13.8429 4.27907H3.52857C3.07886 4.27907 2.71429 3.91985 2.71429 3.47674C2.71429 3.03364 3.07886 2.67442 3.52857 2.67442H13.8429C14.3316 2.67442 14.7803 2.67236 15.1428 2.72039C15.5286 2.77151 15.9364 2.89231 16.2719 3.22289C16.6074 3.55346 16.73 3.95521 16.7819 4.33548C16.8047 4.50267 16.8165 4.68843 16.8222 4.88813L16.8275 5.52434C17.313 5.64097 17.7533 5.84417 18.1252 6.21071L18.297 6.39876C18.6682 6.85033 18.8328 7.38765 18.913 7.9752C19 8.61269 19 9.41652 19 10.3801V17.9186L18.9989 18.6269C18.9953 19.3038 18.9794 19.8873 18.913 20.3736C18.8328 20.9611 18.6682 21.4985 18.297 21.9501L18.1252 22.1381C17.6309 22.6253 17.0159 22.824 16.3345 22.9143C15.6875 23 14.8717 23 13.8938 23H7.2639C5.78368 23 4.58973 23 3.6505 22.8757C2.67325 22.7463 1.84949 22.4686 1.19598 21.8248C0.542738 21.1809 0.261777 20.37 0.130416 19.4073C0.00418005 18.4821 0.00421264 17.3062 0.00424521 15.8481V3.62195C0.00222578 3.57374 0 3.52535 0 3.47674C0 1.55659 1.5798 0 3.52857 0H17.6895ZM5.7 15.5116C5.25029 15.5116 4.88571 15.8709 4.88571 16.314C4.88571 16.7571 5.25029 17.1163 5.7 17.1163H10.0429C10.4926 17.1163 10.8571 16.7571 10.8571 16.314C10.8571 15.8709 10.4926 15.5116 10.0429 15.5116H5.7ZM5.7 11.2326C5.25029 11.2326 4.88571 11.5918 4.88571 12.0349C4.88571 12.478 5.25029 12.8372 5.7 12.8372H13.3C13.7497 12.8372 14.1143 12.478 14.1143 12.0349C14.1143 11.5918 13.7497 11.2326 13.3 11.2326H5.7Z" fill="#141B34"/>
</svg>
