<svg width="19" height="23" viewBox="0 0 19 23" fill="none" xmlns="http://www.w3.org/2000/svg">
<path fill-rule="evenodd" clip-rule="evenodd" d="M6.71821 0C7.29262 0 7.75829 0.468066 7.75829 1.04545V3.64468V3.78671C7.75851 5.47871 7.75861 6.51574 7.50347 7.52129C7.27668 8.41509 6.86029 9.23628 6.20267 10.456C7.10446 10.5831 8.17807 11.1661 9.36059 11.8405C11.2137 12.8973 12.5533 12.66 13.3792 12.0462L12.8429 11.0562L12.7752 10.9311C11.9672 9.43964 11.4725 8.52637 11.2175 7.52129C10.9623 6.51574 10.9625 5.47871 10.9627 3.78672V3.64468V1.04545C10.9627 0.468066 11.4283 0 12.0027 0C12.5771 0 13.0427 0.468066 13.0427 1.04545V3.64468C13.0427 5.52288 13.0501 6.28365 13.233 7.00454C13.4161 7.72595 13.7733 8.40087 14.6698 10.0564L15.8959 12.3202C16.9702 14.3039 17.834 15.8988 18.3024 17.1886C18.7818 18.5083 18.9528 19.788 18.2521 20.9572L18.2497 20.961L18.2357 20.9843L18.2332 20.9883C17.526 22.1454 16.3163 22.5957 14.9221 22.7998C13.5546 23 11.7279 23 9.45002 23H9.27094C6.99314 23 5.16634 23 3.79883 22.7998C2.40457 22.5957 1.19493 22.1454 0.487657 20.9883L0.485282 20.9843L0.471182 20.961L0.46885 20.9572C-0.231868 19.788 -0.0608445 18.5083 0.418464 17.1886C0.886926 15.8987 1.75074 14.3038 2.82504 12.3202L4.05107 10.0564C4.94768 8.40087 5.30484 7.72595 5.48788 7.00454C5.67079 6.28365 5.67817 5.52288 5.67817 3.64468V1.04545C5.67817 0.468066 6.14381 0 6.71821 0ZM5.11808 16.0587C4.96586 15.488 5.30297 14.9014 5.87105 14.7485L5.8803 14.746C6.44837 14.5931 7.03228 14.9317 7.1845 15.5024C7.3367 16.0732 6.9996 16.6597 6.43152 16.8127L6.42228 16.8151C5.8542 16.968 5.27029 16.6293 5.11808 16.0587ZM12.2895 16.888C11.7215 17.041 11.3844 17.6275 11.5365 18.1982C11.6887 18.7689 12.2727 19.1075 12.8408 18.9547L12.85 18.9522C13.4181 18.7992 13.7552 18.2127 13.603 17.642C13.4507 17.0712 12.8669 16.7327 12.2988 16.8855L12.2895 16.888Z" fill="#141B34"/>
</svg>
