<svg width="23" height="23" viewBox="0 0 23 23" fill="none" xmlns="http://www.w3.org/2000/svg">
<path fill-rule="evenodd" clip-rule="evenodd" d="M5.62504 0.348244C4.64833 0.961923 4.32426 2.52015 4.97708 3.46408C6.20749 5.2433 8.90518 4.26075 8.90518 2.0336C8.90518 1.55034 8.71657 1.19996 8.18097 0.688355C7.35819 -0.0974332 6.51352 -0.209982 5.62504 0.348244ZM17.6328 2.85841C17.5174 3.07694 17.4229 3.44128 17.4229 3.66782C17.4229 4.29259 17.0725 4.38337 16.4809 3.91222C15.8283 3.3922 15.5752 3.38152 15.1736 3.85636C14.5831 4.55486 14.5664 4.71362 15.0191 5.33346C15.5338 6.03833 15.4032 6.29731 14.4823 6.39898C13.9063 6.46265 13.8739 6.51522 13.8739 7.39035C13.8739 8.26548 13.9063 8.31806 14.4823 8.38173C15.3993 8.48298 15.5338 8.74217 15.0284 9.43451C14.4729 10.1954 14.4746 10.2957 15.053 10.8461C15.6301 11.3951 15.6956 11.3963 16.4269 10.8689C17.0883 10.392 17.4215 10.4859 17.426 11.1507C17.4312 11.9186 17.7111 12.1474 18.559 12.0769C19.27 12.018 19.3562 11.9494 19.4159 11.3953C19.5158 10.4665 19.7718 10.3304 20.4554 10.8422C21.2068 11.4047 21.3058 11.4031 21.8493 10.8173C22.393 10.231 22.3934 10.1679 21.8596 9.40863C21.3749 8.71937 21.4988 8.48031 22.3916 8.38173C22.9676 8.31806 23 8.26548 23 7.39035C23 6.51522 22.9676 6.46265 22.3916 6.39898C21.4745 6.29772 21.3401 6.03853 21.8454 5.34619C22.4009 4.58526 22.3993 4.48503 21.8209 3.93461C21.2437 3.38563 21.1782 3.38439 20.4469 3.91181C19.7537 4.41171 19.4509 4.29177 19.4509 3.51707C19.4509 3.20735 19.3414 2.84321 19.2076 2.70766C18.8221 2.31723 17.8707 2.40822 17.6328 2.85841ZM3.08959 4.90052C0.700364 6.03566 0.844558 5.90996 0.400418 7.24207C-0.100506 8.74402 -0.128695 9.50824 0.300436 9.94303C1.03763 10.6896 2.06178 9.92989 2.30799 8.45382C2.38343 8.00136 2.60874 7.57232 2.8515 7.41869C3.07965 7.27452 3.28874 7.186 3.31632 7.22214C3.3439 7.25809 3.28124 8.19545 3.177 9.30491C2.94337 11.7913 3.00664 11.8874 5.38451 12.6545L7.07995 13.2014V14.6947C7.07995 16.8001 7.1055 16.8379 8.52127 16.8379H9.71639V14.4191C9.71639 11.5064 9.5945 11.2579 7.91793 10.7539L6.73559 10.3984L6.92622 9.56185C7.26348 8.08105 7.24624 8.09132 7.99621 8.92044C8.76098 9.766 8.64701 9.7586 10.8831 9.10837C12.0113 8.78017 12.4646 8.27575 12.249 7.58772C12.0381 6.9153 11.4684 6.74073 10.4157 7.0258C9.51095 7.27082 9.4566 7.26055 9.07634 6.77092C7.78185 5.10425 7.25091 4.81878 5.05191 4.606C4.20176 4.52385 3.73511 4.59388 3.08959 4.90052ZM19.5408 6.40925C20.2628 7.45299 19.6353 8.82802 18.4369 8.82802C17.1883 8.82802 16.5701 7.33777 17.4308 6.40226C17.9962 5.78756 19.1135 5.79125 19.5408 6.40925ZM3.33599 13.4051C3.29462 13.5423 3.06302 14.5787 2.82128 15.7083C2.57954 16.8379 2.30129 18.0205 2.20314 18.3361L2.02467 18.9102L3.37858 18.8496C4.91036 18.781 4.6672 19.123 5.32083 16.119C5.49301 15.3283 5.69014 14.5329 5.75909 14.3513C5.88604 14.0164 5.64815 13.8775 4.07947 13.3715C3.57713 13.2094 3.39237 13.2178 3.33599 13.4051ZM16.6587 18.1215L16.7131 22.8966H18.4369H20.1608L20.2151 18.1215L20.2697 13.3464H18.4369H16.6042L16.6587 18.1215ZM11.6769 15.5372C11.4814 15.7352 11.5163 22.4355 11.7144 22.7518C11.8335 22.9418 12.339 23.0005 13.4859 22.9572L15.0907 22.8966L15.146 19.1484L15.2012 15.4002H13.5066C12.5745 15.4002 11.7511 15.4618 11.6769 15.5372ZM6.67434 20.3214V22.9993H8.39431C10.4483 22.9993 10.3704 23.1262 10.2826 19.9186L10.2234 17.7621L8.44887 17.7027L6.67434 17.6434V20.3214ZM1.84783 19.8888C1.66267 20.0077 1.60223 20.4807 1.64502 21.4774L1.70566 22.8966H3.42949H5.15332L5.21416 21.5951C5.25066 20.8122 5.18029 20.1778 5.03731 20.0034C4.77346 19.6816 2.30819 19.5929 1.84783 19.8888Z" fill="black"/>
</svg>
