<svg xmlns="http://www.w3.org/2000/svg" viewBox="0 0 23 23" id="Group-3-Fill--Streamline-Mingcute-Fill" height="23" width="23">
  <desc>
    Group 3 Fill Streamline Icon: https://streamlinehq.com
  </desc>
  <g fill="none">
    <path d="m23 0 0 23 -23 0L0 0l23 0ZM12.068770833333334 22.288725l-0.011116666666666667 0.0016291666666666666 -0.06804166666666667 0.034020833333333333 -0.018208333333333333 0.0035458333333333336 -0.014566666666666667 -0.0035458333333333336 -0.06804166666666667 -0.034020833333333333c-0.009487500000000001 -0.002970833333333333 -0.017920833333333334 -0.0004791666666666667 -0.022616666666666667 0.005175000000000001l-0.003929166666666667 0.010445833333333333 -0.016387500000000003 0.40949583333333334 0.004791666666666667 0.01955 0.010541666666666666 0.011691666666666668 0.09928333333333333 0.07091666666666667 0.014183333333333334 0.0037375 0.011308333333333333 -0.0037375 0.09928333333333333 -0.07091666666666667 0.012075 -0.015333333333333334 0.003258333333333333 -0.015908333333333333 -0.016387500000000003 -0.40949583333333334c-0.0019166666666666668 -0.009679166666666668 -0.008241666666666666 -0.0158125 -0.015429166666666667 -0.017249999999999998Zm0.25386250000000005 -0.1078125 -0.013320833333333334 0.0019166666666666668 -0.17700416666666668 0.08855 -0.009487500000000001 0.009775 -0.0025875000000000004 0.010733333333333334 0.017154166666666668 0.41160416666666666 0.0046 0.012266666666666667 0.008145833333333335 0.0068041666666666676 0.19252916666666667 0.08883750000000001c0.011595833333333333 0.0035458333333333336 0.021945833333333335 -0.00019166666666666667 0.027312500000000003 -0.007666666666666667l0.0038333333333333336 -0.013416666666666667 -0.03267916666666667 -0.5890875000000001c-0.0023 -0.011404166666666668 -0.009870833333333334 -0.0186875 -0.018495833333333336 -0.020316666666666667Zm-0.6855916666666667 0.0019166666666666668c-0.009391666666666666 -0.004695833333333333 -0.019933333333333334 -0.0019166666666666668 -0.026258333333333335 0.005079166666666667l-0.0054625 0.013320833333333334 -0.03267916666666667 0.5890875000000001c-0.0006708333333333334 0.011020833333333334 0.0067083333333333335 0.0198375 0.0161 0.022425l0.015045833333333333 -0.0013416666666666668 0.19252916666666667 -0.08883750000000001 0.009008333333333333 -0.0077625 0.0037375 -0.011308333333333333 0.017154166666666668 -0.41160416666666666 -0.0030666666666666668 -0.012075 -0.009008333333333333 -0.008433333333333334 -0.1771 -0.08855Z" stroke-width="0.9583"></path>
    <path fill="#141b34" d="M11.5 11.5c1.7948625 0 3.4219208333333335 0.5937833333333334 4.613991666666667 1.4250416666666668C17.248179166666667 13.715954166666668 18.208333333333336 14.890679166666667 18.208333333333336 16.154720833333332c0 0.6942166666666667 -0.2957416666666667 1.2688333333333335 -0.7623541666666667 1.6969208333333334 -0.4390125 0.4027875 -1.0121916666666668 0.6639333333333334 -1.602525 0.8425666666666667C14.663458333333335 19.051379166666667 13.110287500000002 19.166666666666668 11.5 19.166666666666668c-1.6102874999999999 0 -3.1634295833333335 -0.11528750000000001 -4.34346375 -0.47245833333333337 -0.5903333333333334 -0.17863333333333334 -1.1635508333333333 -0.43977916666666667 -1.6025537500000002 -0.8425666666666667C5.087417916666666 17.42355416666667 4.791666666666667 16.848937499999998 4.791666666666667 16.154720833333332c0 -1.2640416666666667 0.9601637500000001 -2.4387666666666665 2.0942937500000003 -3.2296791666666667C8.07803125 12.093783333333334 9.705137500000001 11.5 11.5 11.5Zm6.708333333333334 0.9583333333333334c1.0009791666666668 0 1.9092875 0.3301458333333333 2.5810791666666666 0.798675 0.6139083333333333 0.4280875 1.2522541666666667 1.1407041666666666 1.2522541666666667 2.0079000000000002 0 0.49565000000000003 -0.21533750000000002 0.9068708333333334 -0.5363791666666666 1.2014625 -0.2935375 0.2692916666666667 -0.6562666666666667 0.4269375 -0.9864125000000001 0.5268916666666666 -0.45051250000000004 0.136275 -0.9823875 0.20613750000000003 -1.5343875 0.23680416666666665 0.11720416666666668 -0.33043333333333336 0.18217916666666667 -0.6900958333333334 0.18217916666666667 -1.0753458333333334 0 -1.4714250000000002 -0.9190416666666666 -2.7204208333333333 -1.9474291666666665 -3.5880958333333335 0.3150041666666667 -0.06967083333333333 0.6465875 -0.10829166666666667 0.9890958333333334 -0.10829166666666667ZM4.791666666666667 12.458333333333334c0.34246041666666666 0 0.6740916666666668 0.03862083333333334 0.9891054166666667 0.10829166666666667C4.752365416666667 13.4343 3.8333333333333335 14.683295833333334 3.8333333333333335 16.154720833333332c0 0.38525000000000004 0.06500375 0.7449125 0.18215041666666668 1.0753458333333334 -0.5519808333333334 -0.03066666666666667 -1.0838654166666666 -0.10052916666666667 -1.5343491666666667 -0.23680416666666665 -0.33020333333333335 -0.09995416666666668 -0.6928941666666667 -0.2576 -0.9864125000000001 -0.5268916666666666C1.1736420833333332 16.171779166666667 0.9583333333333334 15.760558333333332 0.9583333333333334 15.264908333333333c0 -0.8671958333333334 0.6383650000000001 -1.5798125 1.2522254166666666 -2.0079000000000002C2.8823600000000003 12.788479166666667 3.7906970833333333 12.458333333333334 4.791666666666667 12.458333333333334Zm12.9375 -5.75C19.0523375 6.708333333333334 20.125 7.78098625 20.125 9.104166666666668c0 1.3231708333333334 -1.0726625 2.3958333333333335 -2.3958333333333335 2.3958333333333335S15.333333333333334 10.4273375 15.333333333333334 9.104166666666668C15.333333333333334 7.78098625 16.405995833333332 6.708333333333334 17.729166666666668 6.708333333333334Zm-12.458333333333334 0C6.59401375 6.708333333333334 7.666666666666667 7.78098625 7.666666666666667 9.104166666666668 7.666666666666667 10.4273375 6.59401375 11.5 5.270833333333334 11.5S2.875 10.4273375 2.875 9.104166666666668C2.875 7.78098625 3.947652916666667 6.708333333333334 5.270833333333334 6.708333333333334ZM11.5 2.875c2.1170541666666667 0 3.8333333333333335 1.7162408333333332 3.8333333333333335 3.8333333333333335s-1.7162791666666666 3.8333333333333335 -3.8333333333333335 3.8333333333333335c-2.1170925 0 -3.8333333333333335 -1.7162408333333332 -3.8333333333333335 -3.8333333333333335s1.7162408333333332 -3.8333333333333335 3.8333333333333335 -3.8333333333333335Z" stroke-width="0.9583"></path>
  </g>
</svg>