<svg width="16" height="20" viewBox="0 0 16 20" fill="none" xmlns="http://www.w3.org/2000/svg">
<path d="M0 15.9808V7.70753C0 4.07416 -1.19209e-07 2.25748 1.17157 1.12874C2.34315 1.19209e-07 4.22876 0 8 0C11.7712 0 13.6569 1.19209e-07 14.8284 1.12874C16 2.25748 16 4.07416 16 7.70753V15.9808C16 18.2867 16 19.4396 15.2272 19.8523C13.7305 20.6514 10.9232 17.9852 9.59 17.1824C8.8168 16.7168 8.4302 16.484 8 16.484C7.5698 16.484 7.1832 16.7168 6.41 17.1824C5.0768 17.9852 2.26947 20.6514 0.77285 19.8523C5.96046e-08 19.4396 0 18.2867 0 15.9808Z" fill="white"/>
</svg>
