<svg width="16" height="20" viewBox="0 0 16 20" fill="none" xmlns="http://www.w3.org/2000/svg">
<path d="M1 15.3827V7.93678C1 4.66674 1 3.03173 2.02512 2.01587C3.05026 1 4.70017 1 8 1C11.2998 1 12.9498 1 13.9748 2.01587C15 3.03173 15 4.66674 15 7.93678V15.3827C15 17.458 15 18.4956 14.3238 18.8671C13.0142 19.5863 10.5578 17.1867 9.39125 16.4642C8.7147 16.0451 8.37643 15.8356 8 15.8356C7.62357 15.8356 7.2853 16.0451 6.60875 16.4642C5.4422 17.1867 2.98579 19.5863 1.67624 18.8671C1 18.4956 1 17.458 1 15.3827Z" stroke="black" stroke-width="1.5" stroke-linecap="round" stroke-linejoin="round"/>
</svg>
