<svg width="18" height="20" viewBox="0 0 18 20" fill="none" xmlns="http://www.w3.org/2000/svg">
<path d="M15.3999 8.65V8.19996C15.3999 4.80588 15.3999 3.1088 14.3455 2.05439C13.2911 1 11.594 1 8.19995 1C4.80595 1 3.10888 1.00005 2.05447 2.05443C1.00008 3.10884 1.00006 4.80585 1.00004 8.19989L1 12.25C0.999973 15.2087 0.999964 16.6881 1.81709 17.6837C1.96671 17.8661 2.13387 18.0332 2.31619 18.1829C3.31189 19 4.79124 19 7.74995 19" stroke="black" stroke-width="1.5" stroke-linecap="round" stroke-linejoin="round"/>
<path d="M4.59961 5.5H11.7996M4.59961 9.1H8.19961" stroke="black" stroke-width="1.5" stroke-linecap="round" stroke-linejoin="round"/>
<path d="M14.4996 15.8504L13.1496 15.3554V13.1504M9.09961 14.9504C9.09961 17.1872 10.9128 19.0004 13.1496 19.0004C15.3864 19.0004 17.1996 17.1872 17.1996 14.9504C17.1996 12.7136 15.3864 10.9004 13.1496 10.9004C10.9128 10.9004 9.09961 12.7136 9.09961 14.9504Z" stroke="black" stroke-width="1.5" stroke-linecap="round" stroke-linejoin="round"/>
</svg>
