<svg width="20" height="18" viewBox="0 0 20 18" fill="none" xmlns="http://www.w3.org/2000/svg">
<path d="M6.4 16.3C5.93735 16.9277 5.74966 17.1461 5.36925 17.1936C4.98884 17.2411 4.72584 17.0233 4.19983 16.5877C2.24298 14.9674 1 12.5428 1 9.83323C1 4.95479 5.02943 1 10 1C14.9705 1 19 4.95479 19 9.83323C19 12.5428 17.757 14.9674 15.8001 16.5877C15.2742 17.0233 15.0112 17.2411 14.6308 17.1936C14.2503 17.1461 14.0626 16.9277 13.6 16.3" stroke="#141B34" stroke-width="1.5" stroke-linecap="round" stroke-linejoin="round"/>
<path d="M11.3496 7.7498L15.3996 2.7998" stroke="#141B34" stroke-width="1.5" stroke-linecap="round" stroke-linejoin="round"/>
<path d="M10.0004 10.45C10.746 10.45 11.3504 9.84558 11.3504 9.1C11.3504 8.35442 10.746 7.75 10.0004 7.75C9.25481 7.75 8.65039 8.35442 8.65039 9.1C8.65039 9.84558 9.25481 10.45 10.0004 10.45Z" stroke="#141B34" stroke-width="1.5" stroke-linecap="round" stroke-linejoin="round"/>
</svg>
