<svg width="22" height="22" viewBox="0 0 22 22" fill="none" xmlns="http://www.w3.org/2000/svg">
<path d="M21 13V9C21 5.22876 21 3.34315 19.8284 2.17157C18.6569 1 16.7712 1 13 1H11C7.22876 1 5.34315 1 4.17157 2.17157C3 3.34315 3 5.22876 3 9V13C3 16.7712 3 18.6569 4.17157 19.8284C5.34315 21 7.22876 21 11 21H13C16.7712 21 18.6569 21 19.8284 19.8284C21 18.6569 21 16.7712 21 13Z" stroke="black" stroke-width="1.5"/>
<path d="M4 5H1M4 11H1M4 17H1" stroke="black" stroke-width="1.5" stroke-linecap="round" stroke-linejoin="round"/>
<path d="M16.5 6H12.5M14.5 10H12.5" stroke="black" stroke-width="1.5" stroke-linecap="round" stroke-linejoin="round"/>
<path d="M8 21V1" stroke="black" stroke-width="1.5" stroke-linecap="round" stroke-linejoin="round"/>
</svg>
