<svg width="26" height="20" viewBox="0 0 26 20" fill="none" xmlns="http://www.w3.org/2000/svg">
<path fill-rule="evenodd" clip-rule="evenodd" d="M0 0.976251C0 0.717333 0.102855 0.46902 0.285937 0.285937C0.46902 0.102855 0.717333 0 0.976251 0H24.4063C24.6652 0 24.9135 0.102855 25.0966 0.285937C25.2797 0.46902 25.3825 0.717333 25.3825 0.976251C25.3825 1.23517 25.2797 1.48348 25.0966 1.66657C24.9135 1.84965 24.6652 1.9525 24.4063 1.9525H0.976251C0.717333 1.9525 0.46902 1.84965 0.285937 1.66657C0.102855 1.48348 0 1.23517 0 0.976251ZM0 6.18292C0 5.92401 0.102855 5.67569 0.285937 5.49261C0.46902 5.30953 0.717333 5.20667 0.976251 5.20667H24.4063C24.6652 5.20667 24.9135 5.30953 25.0966 5.49261C25.2797 5.67569 25.3825 5.92401 25.3825 6.18292C25.3825 6.44184 25.2797 6.69016 25.0966 6.87324C24.9135 7.05632 24.6652 7.15918 24.4063 7.15918H0.976251C0.717333 7.15918 0.46902 7.05632 0.285937 6.87324C0.102855 6.69016 0 6.44184 0 6.18292ZM0 11.3896C0 11.1307 0.102855 10.8824 0.285937 10.6993C0.46902 10.5162 0.717333 10.4133 0.976251 10.4133H11.3896C11.6485 10.4133 11.8968 10.5162 12.0799 10.6993C12.263 10.8824 12.3658 11.1307 12.3658 11.3896C12.3658 11.6485 12.263 11.8968 12.0799 12.0799C11.8968 12.263 11.6485 12.3658 11.3896 12.3658H0.976251C0.717333 12.3658 0.46902 12.263 0.285937 12.0799C0.102855 11.8968 0 11.6485 0 11.3896ZM0 16.5963C0 16.3374 0.102855 16.089 0.285937 15.906C0.46902 15.7229 0.717333 15.62 0.976251 15.62H11.3896C11.6485 15.62 11.8968 15.7229 12.0799 15.906C12.263 16.089 12.3658 16.3374 12.3658 16.5963C12.3658 16.8552 12.263 17.1035 12.0799 17.2866C11.8968 17.4697 11.6485 17.5725 11.3896 17.5725H0.976251C0.717333 17.5725 0.46902 17.4697 0.285937 17.2866C0.102855 17.1035 0 16.8552 0 16.5963Z" fill="black"/>
<path d="M21.6418 11.5426C23.7948 12.7857 24.87 13.4079 25.0288 14.3034C25.0683 14.5277 25.0683 14.7573 25.0288 14.9816C24.8713 15.8797 23.7948 16.5006 21.6418 17.7437C19.4889 18.9868 18.4137 19.6077 17.5572 19.2966C17.3433 19.2189 17.1446 19.1043 16.9702 18.9582C16.2725 18.3724 16.2725 17.1293 16.2725 14.6431C16.2725 12.157 16.2725 10.9152 16.9702 10.3294C17.1446 10.1823 17.3437 10.0691 17.5572 9.99099C18.4124 9.67859 19.4889 10.3008 21.6418 11.5426Z" fill="black"/>
</svg>
