<svg width="18" height="20" viewBox="0 0 18 20" fill="none" xmlns="http://www.w3.org/2000/svg">
<path d="M7.75 19L6.41941 16.8815C5.49263 15.4058 5.02923 14.668 4.29448 14.5354C3.09837 14.3194 1.86215 15.134 1 15.8581" stroke="black" stroke-width="1.5"/>
<path d="M1 7.30039V13.6255C1 14.708 1 15.2493 1.26883 15.6843C1.53766 16.1192 2.02178 16.3613 2.99004 16.8454L6.53988 18.6203C7.29658 18.9987 7.30387 19.0004 8.14987 19.0004H10.9C13.4456 19.0004 14.7183 19.0004 15.5092 18.2096C16.3 17.4187 16.3 16.146 16.3 13.6004V7.30039C16.3 4.7548 16.3 3.48201 15.5092 2.6912C14.7183 1.90039 13.4456 1.90039 10.9 1.90039H6.4C3.85441 1.90039 2.58162 1.90039 1.79081 2.6912C1 3.48201 1 4.7548 1 7.30039Z" stroke="black" stroke-width="1.5"/>
<path d="M8.65078 7.30078H5.05078M12.2508 11.8008H5.05078" stroke="black" stroke-width="1.5" stroke-linecap="round" stroke-linejoin="round"/>
<path d="M13.1504 1V2.8M8.65039 1V2.8M4.15039 1V2.8" stroke="black" stroke-width="1.5" stroke-linecap="round" stroke-linejoin="round"/>
</svg>
