<svg width="28" height="26" viewBox="0 0 28 26" fill="none" xmlns="http://www.w3.org/2000/svg">
<path d="M18.399 13C18.399 15.4913 16.3795 17.5109 13.8882 17.5109C11.3969 17.5109 9.37732 15.4913 9.37732 13C9.37732 10.5087 11.3969 8.48914 13.8882 8.48914C16.3795 8.48914 18.399 10.5087 18.399 13Z" stroke="black" stroke-width="2"/>
<path d="M25.5017 15.702C26.1743 15.5207 26.5107 15.4299 26.6435 15.2564C26.7763 15.0831 26.7763 14.8041 26.7763 14.2461V11.754C26.7763 11.196 26.7763 10.917 26.6435 10.7437C26.5106 10.5702 26.1743 10.4794 25.5017 10.2981C22.988 9.62018 21.4147 6.99218 22.0635 4.49492C22.2419 3.80813 22.3311 3.46476 22.2459 3.26335C22.1607 3.06195 21.9163 2.92317 21.4274 2.64558L19.2045 1.38354C18.7249 1.11116 18.485 0.974968 18.2698 1.00397C18.0544 1.03296 17.8116 1.27528 17.3257 1.75987C15.4451 3.63607 12.3334 3.63599 10.4526 1.75975C9.96687 1.27515 9.72399 1.03285 9.50869 1.00384C9.29341 0.974839 9.05353 1.11103 8.57378 1.38341L6.35098 2.64547C5.86211 2.92303 5.61768 3.06181 5.5325 3.26317C5.44731 3.46455 5.53648 3.80798 5.71483 4.49483C6.36326 6.99217 4.78878 9.62023 2.27468 10.2981C1.60205 10.4794 1.26573 10.5702 1.13287 10.7435C1.00002 10.917 1.00002 11.196 1.00002 11.754V14.2461C1.00002 14.8041 1.00002 15.0831 1.13287 15.2564C1.2657 15.4299 1.60203 15.5207 2.27468 15.702C4.78836 16.3799 6.3616 19.0079 5.71286 21.5051C5.53445 22.192 5.44523 22.5353 5.53041 22.7367C5.6156 22.9382 5.86004 23.077 6.34893 23.3545L8.57175 24.6166C9.05152 24.8889 9.29141 25.0252 9.50672 24.9962C9.72203 24.9672 9.96487 24.7247 10.4505 24.2401C12.3322 22.3625 15.4461 22.3623 17.3279 24.24C17.8135 24.7247 18.0563 24.967 18.2717 24.996C18.4869 25.025 18.7269 24.8888 19.2066 24.6165L21.4294 23.3543C21.9184 23.0769 22.1629 22.9381 22.248 22.7366C22.3332 22.5352 22.244 22.1918 22.0655 21.505C21.4164 19.0079 22.9884 16.38 25.5017 15.702Z" stroke="black" stroke-width="2" stroke-linecap="round"/>
</svg>
