<svg width="20" height="20" viewBox="0 0 20 20" fill="none" xmlns="http://www.w3.org/2000/svg">
<path d="M12.8181 1.45C11.9316 1.158 10.9842 1 10 1C5.02943 1 1 5.02943 1 10C1 14.9705 5.02943 19 10 19C14.9705 19 19 14.9705 19 10C19 9.05932 18.8556 8.15234 18.588 7.3" stroke="black" stroke-width="1.5" stroke-linecap="round"/>
<path d="M14.5 10C14.5 12.4853 12.4853 14.5 10 14.5C7.51472 14.5 5.5 12.4853 5.5 10C5.5 7.51472 7.51472 5.5 10 5.5" stroke="black" stroke-width="1.5" stroke-linecap="round" stroke-linejoin="round"/>
<path d="M16.75 3.25L10 10M16.75 3.25V1M16.75 3.25H19" stroke="black" stroke-width="1.5" stroke-linecap="round"/>
</svg>
