<svg width="18" height="20" viewBox="0 0 18 20" fill="none" xmlns="http://www.w3.org/2000/svg">
<path d="M10.9008 6.85078C10.9008 7.84486 10.0949 8.65078 9.10078 8.65078C8.10664 8.65078 7.30078 7.84486 7.30078 6.85078C7.30078 5.85667 8.10664 5.05078 9.10078 5.05078C10.0949 5.05078 10.9008 5.85667 10.9008 6.85078Z" stroke="black" stroke-width="1.5" stroke-linecap="round" stroke-linejoin="round"/>
<path d="M6.93102 11.4838C6.36512 11.8154 4.88135 12.4928 5.78506 13.3403C6.22652 13.7543 6.71819 14.0504 7.33636 14.0504H10.8636C11.4818 14.0504 11.9735 13.7543 12.415 13.3403C13.3187 12.4928 11.8349 11.8154 11.269 11.4838C9.94195 10.7059 8.25805 10.7059 6.93102 11.4838Z" stroke="black" stroke-width="1.5" stroke-linejoin="round"/>
<path d="M17.2 9.26497V6.65226C17.2 5.17626 17.2 4.43825 16.8363 3.95676C16.4726 3.47526 15.6503 3.2415 14.0056 2.77399C12.882 2.45458 11.8914 2.06977 11.1001 1.71846C10.0211 1.23949 9.4816 1 9.1 1C8.7184 1 8.17894 1.23949 7.09994 1.71846C6.30855 2.06977 5.31806 2.45457 4.1944 2.77399C2.54974 3.2415 1.7274 3.47526 1.3637 3.95676C1 4.43825 1 5.17626 1 6.65226V9.26497C1 14.3276 5.55649 17.3651 7.8346 18.5675C8.38099 18.8558 8.65414 19 9.1 19C9.54586 19 9.81901 18.8558 10.3654 18.5675C12.6435 17.3651 17.2 14.3276 17.2 9.26497Z" stroke="black" stroke-width="1.5" stroke-linecap="round" stroke-linejoin="round"/>
</svg>
