<svg width="23" height="19" viewBox="0 0 23 19" fill="none" xmlns="http://www.w3.org/2000/svg">
<path d="M6.125 15.6875V3.3125C6.125 2.26105 6.125 1.73534 5.89892 1.34375C5.75081 1.08722 5.53778 0.874186 5.28125 0.72608C4.88966 0.5 4.36395 0.5 3.3125 0.5C2.26105 0.5 1.73534 0.5 1.34375 0.72608C1.08722 0.874186 0.874186 1.08722 0.72608 1.34375C0.5 1.73534 0.5 2.26105 0.5 3.3125V15.6875C0.5 16.7389 0.5 17.2646 0.72608 17.6562C0.874186 17.9128 1.08722 18.1258 1.34375 18.2739C1.73534 18.5 2.26105 18.5 3.3125 18.5C4.36395 18.5 4.88966 18.5 5.28125 18.2739C5.53778 18.1258 5.75081 17.9128 5.89892 17.6562C6.125 17.2646 6.125 16.7389 6.125 15.6875Z" fill="white" stroke="black" stroke-linecap="round" stroke-linejoin="round"/>
<path d="M11.75 15.6875V6.6875C11.75 5.63605 11.75 5.11034 11.5239 4.71875C11.3758 4.46222 11.1627 4.24919 10.9062 4.10108C10.5146 3.875 9.98892 3.875 8.93749 3.875C7.88605 3.875 7.36033 3.875 6.96874 4.10108C6.71221 4.24919 6.49918 4.46222 6.35107 4.71875C6.12499 5.11034 6.12499 5.63605 6.12499 6.6875V15.6875C6.12499 16.7389 6.12499 17.2646 6.35107 17.6562C6.49918 17.9127 6.71221 18.1258 6.96874 18.2739C7.36033 18.5 7.88605 18.5 8.93749 18.5C9.98892 18.5 10.5146 18.5 10.9062 18.2739C11.1627 18.1258 11.3758 17.9127 11.5239 17.6562C11.75 17.2646 11.75 16.7389 11.75 15.6875Z" fill="white" stroke="black" stroke-linecap="round" stroke-linejoin="round"/>
<path d="M18.7019 7.00353C18.3424 6.01447 18.1625 5.51994 17.8159 5.22908C17.589 5.03872 17.3161 4.91143 17.0243 4.85999C16.5787 4.78139 16.0843 4.96152 15.0955 5.3218C14.1079 5.68165 13.6141 5.86157 13.3235 6.20798C13.1334 6.43471 13.0062 6.70744 12.9548 6.99884C12.8761 7.44406 13.0557 7.93805 13.4149 8.9258L16.1098 16.3379C16.4695 17.327 16.6493 17.8215 16.9959 18.1123C17.2228 18.3027 17.4958 18.43 17.7874 18.4814C18.233 18.5601 18.7275 18.38 19.7164 18.0196C20.704 17.6598 21.1978 17.4798 21.4882 17.1335C21.6784 16.9068 21.8056 16.634 21.857 16.3426C21.9356 15.8974 21.7561 15.4034 21.3969 14.4156L18.7019 7.00353Z" fill="white" stroke="black" stroke-linecap="round" stroke-linejoin="round"/>
</svg>
