<svg width="24" height="24" viewBox="0 0 24 24" fill="none" xmlns="http://www.w3.org/2000/svg">
<path fill-rule="evenodd" clip-rule="evenodd" d="M12 3C10.3431 3 9 4.34315 9 6C9 7.65685 10.3431 9 12 9C13.6569 9 15 7.65685 15 6C15 4.34315 13.6569 3 12 3ZM7 6C7 3.23858 9.23858 1 12 1C14.7614 1 17 3.23858 17 6C17 8.76142 14.7614 11 12 11C9.23858 11 7 8.76142 7 6ZM5.77844 14.15C7.77388 13.2555 10.184 13 12 13C12.9554 13 14.0563 13.0707 15.1682 13.2603C15.7126 13.3532 16.0786 13.8698 15.9858 14.4143C15.8929 14.9587 15.3763 15.3247 14.8318 15.2319C13.8491 15.0642 12.8625 15 12 15C10.316 15 8.22612 15.2445 6.59656 15.975C5.00295 16.6894 4 17.778 4 19.5V20.5C4 20.7821 4.23155 21 4.48169 21H13C13.5523 21 14 21.4477 14 22C14 22.5523 13.5523 23 13 23H4.48169C3.09519 23 2 21.8546 2 20.5V19.5C2 16.722 3.74705 15.0606 5.77844 14.15ZM19 15C19.4767 15 19.8871 15.3365 19.9806 15.8039L20.2845 17.3233L21.8039 17.0194C22.2561 16.929 22.7116 17.1596 22.9064 17.5776C23.1012 17.9957 22.9848 18.4927 22.6247 18.7809L21.3271 19.819L21.9487 21.6838C22.0953 22.1238 21.9202 22.6068 21.5257 22.8507C21.1312 23.0945 20.6208 23.035 20.2929 22.7071L19 21.4142L17.7071 22.7071C17.3792 23.035 16.8688 23.0945 16.4743 22.8507C16.0798 22.6068 15.9047 22.1238 16.0513 21.6838L16.6729 19.819L15.3753 18.7809C15.0152 18.4927 14.8988 17.9957 15.0936 17.5776C15.2884 17.1596 15.7439 16.929 16.1961 17.0194L17.7155 17.3233L18.0194 15.8039C18.1129 15.3365 18.5233 15 19 15Z" fill="black"/>
</svg>
