<svg width="14" height="12" viewBox="0 0 14 12" fill="none" xmlns="http://www.w3.org/2000/svg">
<path d="M6.2832 3.40039H7.4832" stroke="#808080" stroke-linecap="round"/>
<path d="M0.882812 5.2C0.882812 3.2201 0.882812 2.23015 1.49789 1.61508C2.11296 1 3.10291 1 5.08281 1H5.68281C7.66269 1 8.65263 1 9.26775 1.61508C9.88281 2.23015 9.88281 3.2201 9.88281 5.2V6.4C9.88281 8.37988 9.88281 9.36982 9.26775 9.98494C8.65263 10.6 7.66269 10.6 5.68281 10.6H5.08281C3.10291 10.6 2.11296 10.6 1.49789 9.98494C0.882812 9.36982 0.882812 8.37988 0.882812 6.4V5.2Z" stroke="#808080"/>
<path d="M9.88281 3.94351L9.95835 3.88118C11.2278 2.83374 11.8626 2.31002 12.3727 2.56289C12.8828 2.81577 12.8828 3.65413 12.8828 5.33086V6.26914C12.8828 7.9459 12.8828 8.78422 12.3727 9.03712C11.8626 9.28996 11.2278 8.76628 9.95835 7.7188L9.88281 7.65646" stroke="#808080" stroke-linecap="round"/>
</svg>
